<svg width="19" height="23" viewBox="0 0 19 23" fill="none" xmlns="http://www.w3.org/2000/svg">
<path d="M9.5 13.0625C8.72742 13.0625 7.97219 12.8334 7.32981 12.4042C6.68743 11.975 6.18675 11.3649 5.8911 10.6511C5.59544 9.93734 5.51809 9.15192 5.66881 8.39418C5.81953 7.63644 6.19157 6.94042 6.73787 6.39412C7.28417 5.84782 7.98019 5.47578 8.73793 5.32506C9.49567 5.17434 10.2811 5.25169 10.9949 5.54735C11.7086 5.843 12.3187 6.34368 12.7479 6.98606C13.1772 7.62844 13.4063 8.38367 13.4063 9.15625C13.405 10.1919 12.9931 11.1847 12.2608 11.917C11.5285 12.6493 10.5356 13.0613 9.5 13.0625ZM9.5 6.8125C9.03645 6.8125 8.58331 6.94996 8.19788 7.2075C7.81246 7.46503 7.51205 7.83107 7.33466 8.25934C7.15727 8.6876 7.11085 9.15885 7.20129 9.61349C7.29172 10.0681 7.51494 10.4858 7.84272 10.8135C8.1705 11.1413 8.58812 11.3645 9.04276 11.455C9.4974 11.5454 9.96865 11.499 10.3969 11.3216C10.8252 11.1442 11.1912 10.8438 11.4488 10.4584C11.7063 10.0729 11.8438 9.6198 11.8438 9.15625C11.8431 8.53484 11.596 7.93906 11.1566 7.49966C10.7172 7.06025 10.1214 6.81312 9.5 6.8125Z" fill="#545454"/>
<path d="M9.50001 22.4375L2.90938 14.6648C2.81781 14.5481 2.72718 14.4307 2.63751 14.3125C1.51171 12.8295 0.90353 11.0181 0.906259 9.15625C0.906259 6.87705 1.81167 4.69119 3.42331 3.07955C5.03495 1.46791 7.2208 0.5625 9.50001 0.5625C11.7792 0.5625 13.9651 1.46791 15.5767 3.07955C17.1883 4.69119 18.0938 6.87705 18.0938 9.15625C18.0965 11.0173 17.4886 12.8278 16.3633 14.3102L16.3625 14.3125C16.3625 14.3125 16.1281 14.6203 16.093 14.6617L9.50001 22.4375ZM3.88438 13.3711C3.88595 13.3711 4.0672 13.6117 4.1086 13.6633L9.50001 20.0219L14.8984 13.6547C14.9328 13.6117 15.1156 13.3695 15.1164 13.3688C16.0361 12.1571 16.5331 10.6774 16.5313 9.15625C16.5313 7.29145 15.7905 5.50302 14.4719 4.18441C13.1532 2.86579 11.3648 2.125 9.50001 2.125C7.63521 2.125 5.84678 2.86579 4.52816 4.18441C3.20955 5.50302 2.46876 7.29145 2.46876 9.15625C2.46712 10.6783 2.96468 12.1589 3.88516 13.3711H3.88438Z" fill="#545454"/>
</svg>
