<svg width="25" height="25" viewBox="0 0 25 25" fill="none" xmlns="http://www.w3.org/2000/svg">
<path d="M19.2569 24.6111C19.0234 24.6105 18.7906 24.5849 18.5625 24.5347C14.2199 23.6364 10.2191 21.5301 7.0208 18.4583C3.89071 15.3798 1.71983 11.4601 0.770806 7.17362C0.658904 6.63939 0.686369 6.08536 0.850559 5.56482C1.01475 5.04427 1.31014 4.57474 1.70831 4.2014L4.48608 1.52779C4.62796 1.39362 4.79654 1.29087 4.98082 1.22625C5.16509 1.16163 5.36092 1.1366 5.55553 1.15279C5.75731 1.17384 5.95203 1.23884 6.12599 1.34322C6.29996 1.4476 6.44894 1.58882 6.56247 1.75696L10.0347 6.8889C10.1649 7.08803 10.2278 7.32369 10.214 7.56122C10.2003 7.79874 10.1106 8.02558 9.9583 8.20835L8.21525 10.2917C8.90945 11.8281 9.89257 13.2167 11.1111 14.382C12.3217 15.5895 13.7526 16.5536 15.3264 17.2222L17.4861 15.507C17.6675 15.3636 17.8882 15.2788 18.1189 15.264C18.3496 15.2491 18.5794 15.3048 18.7778 15.4236L24.0208 18.8125C24.2007 18.9199 24.354 19.0667 24.4692 19.2418C24.5843 19.4169 24.6584 19.6157 24.6858 19.8235C24.7132 20.0312 24.6932 20.2425 24.6273 20.4414C24.5615 20.6404 24.4515 20.8218 24.3055 20.9722L21.5972 23.6528C21.2895 23.9589 20.9244 24.2012 20.5228 24.3657C20.1211 24.5301 19.6909 24.6136 19.2569 24.6111ZM5.44442 2.52779L2.66664 5.2014C2.44265 5.41012 2.27684 5.67354 2.18552 5.96576C2.0942 6.25799 2.08051 6.56895 2.14581 6.86807C3.02825 10.8904 5.05672 14.5711 7.98608 17.4653C10.9959 20.3553 14.7608 22.3364 18.8472 23.1806C19.1565 23.2452 19.477 23.2321 19.78 23.1424C20.083 23.0528 20.359 22.8893 20.5833 22.6667L23.2916 19.9861L18.2291 16.7153L15.9097 18.5625C15.8209 18.6328 15.7163 18.6803 15.6049 18.7009C15.4936 18.7214 15.3789 18.7145 15.2708 18.6806C13.3449 17.971 11.5996 16.8446 10.1597 15.382C8.67036 13.9911 7.51429 12.282 6.77775 10.382C6.74659 10.2669 6.74555 10.1458 6.77474 10.0303C6.80393 9.91474 6.86236 9.80866 6.94442 9.72223L8.81942 7.47918L5.44442 2.52779Z" fill="#545454"/>
</svg>
