<svg width="16" height="17" viewBox="0 0 16 17" fill="none" xmlns="http://www.w3.org/2000/svg">
<path d="M11.1562 9.44043C10.422 9.44043 10.1797 9.99888 10.1061 10.2582H12.0662C12.0479 10.1142 11.9903 9.86117 11.8072 9.67666C11.6511 9.52014 11.4328 9.44043 11.1562 9.44043ZM6.11742 10.4834H4.2607V12.0659H6.01598C6.32902 12.058 6.71685 11.9573 6.71685 11.2996C6.71685 10.5063 6.17877 10.4834 6.11742 10.4834Z" fill="white"/>
<path d="M14.4859 0H1.49868C1.16328 8.72893e-05 0.836751 0.107694 0.567015 0.307024C0.297279 0.506353 0.0985497 0.786905 0 1.10749V15.0143C0.0825129 15.2825 0.235396 15.5236 0.442736 15.7127C0.650076 15.9017 0.904293 16.0317 1.17892 16.0891H14.8054C15.0721 16.0332 15.3197 15.9087 15.5237 15.728C15.7277 15.5473 15.8811 15.3167 15.9689 15.0587V1.06316C15.8637 0.753281 15.6641 0.484121 15.3981 0.293449C15.1321 0.102776 14.8131 0.000160165 14.4859 0ZM9.61187 6.80149C9.61187 6.73946 9.66248 6.68908 9.72428 6.68908H12.5154C12.5768 6.68908 12.6276 6.73946 12.6276 6.80149V7.63469C12.6275 7.6644 12.6156 7.69287 12.5946 7.71388C12.5736 7.73489 12.5451 7.74675 12.5154 7.74687H9.72428C9.69451 7.74687 9.66595 7.73506 9.64488 7.71402C9.6238 7.69299 9.61193 7.66446 9.61187 7.63469V6.80149ZM8.42646 11.4229C8.42646 12.4865 7.86375 12.9995 7.39084 13.2411C6.8756 13.5051 6.34156 13.5257 6.18975 13.5257H2.6467C2.61692 13.5255 2.58844 13.5135 2.5674 13.4925C2.54636 13.4714 2.53447 13.4429 2.5343 13.4131V6.64967C2.5343 6.58765 2.58535 6.53704 2.6467 6.53704H6.16691C7.41636 6.53704 8.19269 7.27015 8.19269 8.45086C8.19269 9.18218 7.83643 9.53306 7.52295 9.7001C7.6972 9.76069 7.85407 9.86283 7.97996 9.99768C8.47124 10.5172 8.42914 11.386 8.42646 11.4229ZM13.6446 11.321C13.6412 11.3481 13.628 11.373 13.6075 11.3911C13.587 11.4091 13.5606 11.419 13.5333 11.4189H10.1448C10.1692 11.7904 10.3163 12.0584 10.5821 12.2167C10.8172 12.3562 11.0772 12.3714 11.1771 12.3714C11.1979 12.3714 11.2109 12.3705 11.2124 12.3701C11.6014 12.3701 11.8775 12.2843 12.0403 12.115C12.1963 11.9525 12.1921 11.7686 12.191 11.7608C12.191 11.7299 12.2013 11.7001 12.2232 11.6777C12.2336 11.6667 12.2462 11.658 12.2602 11.652C12.2741 11.6461 12.2891 11.643 12.3043 11.643H13.4939C13.5562 11.643 13.6068 11.6934 13.6068 11.7557C13.6068 13.5763 11.6625 13.6686 11.2715 13.6686C11.2091 13.6686 11.1735 13.6663 11.1735 13.6663H11.1724C10.2946 13.6663 9.60784 13.4104 9.13672 12.9061C8.39847 12.1148 8.46587 11.0078 8.46922 10.9612C8.46922 10.9413 8.47236 10.2852 8.80398 9.61949C9.11545 8.99856 9.77847 8.25785 11.1802 8.25785C11.9834 8.25785 12.6088 8.5046 13.0358 8.99095C13.8215 9.88685 13.6536 11.2628 13.6446 11.321Z" fill="white"/>
<path d="M6.48196 8.52256C6.48196 7.93836 6.13153 7.93164 6.11697 7.93164H4.2607V9.21558H5.99426C6.25199 9.21558 6.48196 9.16274 6.48196 8.52256Z" fill="white"/>
</svg>
