<svg width="255" height="35" viewBox="0 0 255 35" fill="none" xmlns="http://www.w3.org/2000/svg">
<path d="M63.736 9.008V28.016C63.736 28.6347 64.0027 29.0507 64.536 29.264C64.1093 29.9467 63.5547 30.288 62.872 30.288C61.6773 30.288 61.08 29.5413 61.08 28.048V19.504H48.76V28.016C48.76 28.6133 49.016 29.0293 49.528 29.264C49.1013 29.9467 48.536 30.288 47.832 30.288C46.6587 30.288 46.072 29.5413 46.072 28.048V9.04C46.072 8.44267 45.8053 8.02667 45.272 7.792C45.656 7.13067 46.2107 6.8 46.936 6.8C48.152 6.8 48.76 7.536 48.76 9.008V17.552H61.08V9.04C61.08 8.44267 60.8133 8.02667 60.28 7.792C60.664 7.13067 61.2187 6.8 61.944 6.8C63.1387 6.8 63.736 7.536 63.736 9.008ZM77.3695 20.144C78.2442 20.08 78.6815 19.5787 78.6815 18.64C78.6815 17.68 78.4042 16.8907 77.8495 16.272C77.3162 15.632 76.5588 15.312 75.5775 15.312C74.5962 15.312 73.7002 15.7813 72.8895 16.72C72.0788 17.6587 71.5775 18.96 71.3855 20.624L77.3695 20.144ZM71.3215 22C71.3215 24.0907 71.7695 25.6373 72.6655 26.64C73.5828 27.6427 74.8842 28.144 76.5695 28.144C78.2548 28.144 79.6522 27.5893 80.7615 26.48C81.0815 26.6507 81.2415 26.9387 81.2415 27.344C81.2415 28.048 80.7295 28.72 79.7055 29.36C78.6815 29.9787 77.4655 30.288 76.0575 30.288C73.8602 30.288 72.0575 29.5947 70.6495 28.208C69.2415 26.8213 68.5375 24.88 68.5375 22.384C68.5375 19.8667 69.2948 17.7547 70.8095 16.048C72.3455 14.32 74.1055 13.456 76.0895 13.456C77.6682 13.456 78.9482 14 79.9295 15.088C80.9322 16.176 81.4335 17.4133 81.4335 18.8C81.4335 19.8027 81.1562 20.5493 80.6015 21.04C80.0682 21.5093 79.1935 21.7653 77.9775 21.808L71.3215 22ZM87.2018 25.904C87.2018 27.44 88.0338 28.208 89.6978 28.208C91.3831 28.208 92.7698 27.472 93.8578 26V22.192C91.5964 22.32 89.9218 22.7253 88.8338 23.408C87.7458 24.0693 87.2018 24.9013 87.2018 25.904ZM96.5138 18.608V27.12C96.5138 28.2507 97.0364 28.8907 98.0818 29.04C97.6764 29.872 97.0044 30.288 96.0658 30.288C94.7218 30.288 93.9858 29.424 93.8578 27.696C92.6204 29.424 90.9564 30.288 88.8658 30.288C87.5431 30.288 86.4551 29.9253 85.6018 29.2C84.7484 28.4747 84.3218 27.472 84.3218 26.192C84.3218 24.6133 85.1111 23.344 86.6898 22.384C88.2898 21.4027 90.6791 20.8693 93.8578 20.784V18.864C93.8578 17.5413 93.6231 16.5707 93.1538 15.952C92.6844 15.312 91.9378 14.992 90.9138 14.992C89.9111 14.992 89.1538 15.2053 88.6418 15.632C88.1298 16.0373 87.8738 16.5067 87.8738 17.04C87.8738 17.552 88.0231 17.968 88.3218 18.288C87.8738 18.6293 87.3724 18.8 86.8177 18.8C86.2844 18.8 85.8471 18.6507 85.5058 18.352C85.1644 18.0533 84.9938 17.6267 84.9938 17.072C84.9938 16.0693 85.5698 15.216 86.7218 14.512C87.8738 13.808 89.2924 13.456 90.9778 13.456C92.6631 13.456 94.0071 13.9147 95.0098 14.832C96.0124 15.728 96.5138 16.9867 96.5138 18.608ZM105.069 7.888V28.016C105.069 28.6347 105.335 29.0507 105.869 29.264C105.421 29.9467 104.866 30.288 104.205 30.288C103.01 30.288 102.413 29.5413 102.413 28.048V7.952C102.413 7.33333 102.146 6.90667 101.613 6.672C101.975 6.01067 102.53 5.68 103.277 5.68C104.471 5.68 105.069 6.416 105.069 7.888ZM113.601 15.792V25.936C113.601 26.7253 113.75 27.2907 114.049 27.632C114.369 27.9733 114.881 28.144 115.585 28.144C116.907 28.144 118.155 27.5787 119.329 26.448C119.691 26.64 119.873 26.9493 119.873 27.376C119.873 28.1013 119.403 28.7733 118.465 29.392C117.526 29.9893 116.374 30.288 115.009 30.288C112.278 30.288 110.913 28.8693 110.913 26.032V15.792C109.185 15.728 108.321 15.312 108.321 14.544C108.321 14.1387 108.449 13.8293 108.705 13.616C109.451 13.7227 110.027 13.776 110.433 13.776H110.913V11.184C110.913 10.5867 110.646 10.16 110.113 9.904C110.539 9.24267 111.094 8.912 111.777 8.912C112.993 8.912 113.601 9.65867 113.601 11.152V13.776H118.977C119.062 13.9253 119.105 14.1067 119.105 14.32C119.105 15.3013 117.419 15.792 114.049 15.792H113.601ZM136.911 18.96V28.016C136.911 28.6133 137.188 29.0293 137.743 29.264C137.295 29.9467 136.729 30.288 136.047 30.288C134.873 30.288 134.287 29.5413 134.287 28.048V19.152C134.287 16.912 133.305 15.792 131.343 15.792C130.276 15.792 129.263 16.2187 128.303 17.072C127.343 17.9253 126.681 19.0667 126.319 20.496V28.016C126.319 28.6347 126.585 29.0507 127.119 29.264C126.671 29.9467 126.116 30.288 125.455 30.288C124.26 30.288 123.663 29.5413 123.663 28.048V7.952C123.663 7.33333 123.396 6.90667 122.863 6.672C123.225 6.01067 123.78 5.68 124.527 5.68C125.721 5.68 126.319 6.416 126.319 7.888V17.36C126.873 16.208 127.663 15.2693 128.687 14.544C129.711 13.8187 130.905 13.456 132.271 13.456C133.657 13.456 134.777 13.9253 135.631 14.864C136.484 15.7813 136.911 17.1467 136.911 18.96ZM167.798 10.64C167.798 11.1733 167.627 11.5893 167.286 11.888C166.944 12.1867 166.518 12.336 166.006 12.336C165.515 12.336 165.131 12.2613 164.854 12.112C164.875 11.9627 164.885 11.824 164.885 11.696C164.885 10.9707 164.555 10.32 163.894 9.744C163.232 9.168 162.198 8.88 160.79 8.88C158.827 8.88 157.11 9.72267 155.638 11.408C154.187 13.072 153.462 15.4187 153.462 18.448C153.462 21.4773 154.123 23.8027 155.446 25.424C156.768 27.024 158.614 27.824 160.982 27.824C162.24 27.824 163.414 27.568 164.502 27.056C165.59 26.544 166.486 25.936 167.19 25.232C167.339 25.2533 167.478 25.36 167.606 25.552C167.755 25.7227 167.83 25.9573 167.83 26.256C167.83 27.0453 167.072 27.92 165.558 28.88C164.064 29.8187 162.294 30.288 160.246 30.288C157.408 30.288 155.072 29.264 153.238 27.216C151.424 25.168 150.518 22.3733 150.518 18.832C150.518 15.2907 151.552 12.4 153.622 10.16C155.691 7.92 158.262 6.8 161.334 6.8C163.168 6.8 164.704 7.17333 165.942 7.92C167.179 8.66667 167.798 9.57333 167.798 10.64ZM175.694 7.888V28.016C175.694 28.6347 175.96 29.0507 176.494 29.264C176.046 29.9467 175.491 30.288 174.83 30.288C173.635 30.288 173.038 29.5413 173.038 28.048V7.952C173.038 7.33333 172.771 6.90667 172.238 6.672C172.6 6.01067 173.155 5.68 173.902 5.68C175.096 5.68 175.694 6.416 175.694 7.888ZM186.914 5.52C187.511 5.52 187.938 5.70133 188.194 6.064C188.471 6.42667 188.61 6.75733 188.61 7.056C188.61 7.35467 188.588 7.6 188.546 7.792C188.375 7.74933 188.194 7.728 188.002 7.728C187.532 7.728 187.084 7.92 186.658 8.304L183.586 11.28C183.202 11.6427 182.871 11.824 182.594 11.824C182.274 11.824 182.039 11.664 181.89 11.344L184.642 7.184C185.346 6.07467 186.103 5.52 186.914 5.52ZM184.194 15.696V28.016C184.194 28.6347 184.46 29.0507 184.994 29.264C184.546 29.9467 183.991 30.288 183.33 30.288C182.135 30.288 181.538 29.5413 181.538 28.048V15.76C181.538 15.1413 181.271 14.7147 180.738 14.48C181.143 13.7973 181.698 13.456 182.402 13.456C183.596 13.456 184.194 14.2027 184.194 15.696ZM203.255 18.96V28.016C203.255 28.6133 203.532 29.0293 204.087 29.264C203.639 29.9467 203.073 30.288 202.391 30.288C201.217 30.288 200.631 29.5413 200.631 28.048V19.152C200.631 16.912 199.649 15.792 197.687 15.792C196.62 15.792 195.607 16.2187 194.647 17.072C193.687 17.9253 193.025 19.0667 192.663 20.496V28.016C192.663 28.6347 192.929 29.0507 193.463 29.264C193.015 29.9467 192.46 30.288 191.799 30.288C190.604 30.288 190.007 29.5413 190.007 28.048V15.76C190.007 15.1413 189.74 14.7147 189.207 14.48C189.612 13.7973 190.167 13.456 190.871 13.456C192.065 13.456 192.663 14.2027 192.663 15.696V17.36C193.217 16.208 194.007 15.2693 195.031 14.544C196.055 13.8187 197.249 13.456 198.615 13.456C200.001 13.456 201.121 13.9253 201.975 14.864C202.828 15.7813 203.255 17.1467 203.255 18.96ZM210.415 6.64C210.969 6.64 211.417 6.8 211.759 7.12C212.121 7.41867 212.303 7.84533 212.303 8.4C212.303 8.93333 212.068 9.424 211.599 9.872C211.151 10.2987 210.639 10.512 210.062 10.512C209.487 10.512 209.017 10.3413 208.655 10C208.292 9.65867 208.111 9.21067 208.111 8.656C208.111 8.10133 208.356 7.632 208.847 7.248C209.359 6.84267 209.881 6.64 210.415 6.64ZM211.663 15.696V28.016C211.663 28.6347 211.929 29.0507 212.463 29.264C212.015 29.9467 211.46 30.288 210.799 30.288C209.604 30.288 209.007 29.5413 209.007 28.048V15.76C209.007 15.1413 208.74 14.7147 208.207 14.48C208.612 13.7973 209.167 13.456 209.871 13.456C211.065 13.456 211.663 14.2027 211.663 15.696ZM228.739 16.528C228.739 17.04 228.59 17.4453 228.291 17.744C227.993 18.0427 227.63 18.192 227.203 18.192C226.777 18.192 226.425 18.1067 226.147 17.936C226.211 17.7013 226.243 17.4667 226.243 17.232C226.243 15.9307 225.443 15.28 223.843 15.28C222.542 15.28 221.379 15.8773 220.355 17.072C219.331 18.2667 218.819 19.888 218.819 21.936C218.819 23.9627 219.289 25.488 220.227 26.512C221.187 27.536 222.361 28.048 223.747 28.048C225.518 28.048 226.99 27.4827 228.163 26.352C228.441 26.5867 228.579 26.896 228.579 27.28C228.579 27.9627 228.046 28.6347 226.979 29.296C225.913 29.9573 224.697 30.288 223.331 30.288C221.347 30.288 219.651 29.6053 218.243 28.24C216.835 26.8747 216.131 24.9333 216.131 22.416C216.131 19.8773 216.921 17.7547 218.499 16.048C220.099 14.32 222.041 13.456 224.323 13.456C225.667 13.456 226.734 13.7547 227.523 14.352C228.334 14.9493 228.739 15.6747 228.739 16.528ZM234.858 25.904C234.858 27.44 235.69 28.208 237.354 28.208C239.039 28.208 240.426 27.472 241.514 26V22.192C239.253 22.32 237.578 22.7253 236.49 23.408C235.402 24.0693 234.858 24.9013 234.858 25.904ZM244.17 18.608V27.12C244.17 28.2507 244.693 28.8907 245.738 29.04C245.333 29.872 244.661 30.288 243.722 30.288C242.378 30.288 241.642 29.424 241.514 27.696C240.277 29.424 238.613 30.288 236.522 30.288C235.199 30.288 234.111 29.9253 233.258 29.2C232.405 28.4747 231.978 27.472 231.978 26.192C231.978 24.6133 232.767 23.344 234.346 22.384C235.946 21.4027 238.335 20.8693 241.514 20.784V18.864C241.514 17.5413 241.279 16.5707 240.81 15.952C240.341 15.312 239.594 14.992 238.57 14.992C237.567 14.992 236.81 15.2053 236.298 15.632C235.786 16.0373 235.53 16.5067 235.53 17.04C235.53 17.552 235.679 17.968 235.978 18.288C235.53 18.6293 235.029 18.8 234.474 18.8C233.941 18.8 233.503 18.6507 233.162 18.352C232.821 18.0533 232.65 17.6267 232.65 17.072C232.65 16.0693 233.226 15.216 234.378 14.512C235.53 13.808 236.949 13.456 238.634 13.456C240.319 13.456 241.663 13.9147 242.666 14.832C243.669 15.728 244.17 16.9867 244.17 18.608Z" fill="#0C5C31"/>
<path d="M18 9.29688C18 13.8273 14.2995 17.5 9.73467 17.5H1.46936V9.29688C1.46936 4.76641 5.16986 1.09375 9.73467 1.09375C14.2995 1.09375 18 4.76641 18 9.29688Z" fill="#0C5C31"/>
<path d="M18 25.7031C18 21.1727 21.7005 17.5 26.2653 17.5H34.5306V25.7031C34.5306 30.2336 30.8301 33.9063 26.2653 33.9063C21.7005 33.9063 18 30.2336 18 25.7031Z" fill="#0C5C31"/>
<path d="M1.46936 25.7031C1.46936 30.2336 5.16986 33.9063 9.73467 33.9063H18V25.7031C18 21.1727 14.2995 17.5 9.73467 17.5C5.16986 17.5 1.46936 21.1727 1.46936 25.7031Z" fill="#0C5C31"/>
</svg>
