<svg width="76" height="29" viewBox="0 0 76 29" fill="none" xmlns="http://www.w3.org/2000/svg">
<path d="M15 7.70312C15 11.4569 11.9162 14.5 8.11224 14.5H1.22449V7.70312C1.22449 3.94931 4.30824 0.90625 8.11224 0.90625C11.9162 0.90625 15 3.94931 15 7.70312Z" fill="white"/>
<path d="M15 21.2969C15 17.5431 18.0838 14.5 21.8878 14.5H28.7755V21.2969C28.7755 25.0507 25.6918 28.0938 21.8878 28.0938C18.0838 28.0938 15 25.0507 15 21.2969Z" fill="white"/>
<path d="M1.22449 21.2969C1.22449 25.0507 4.30824 28.0938 8.11224 28.0938H15V21.2969C15 17.5431 11.9162 14.5 8.11224 14.5C4.30824 14.5 1.22449 17.5431 1.22449 21.2969Z" fill="white"/>
<path d="M49.44 6.32V24.14C49.44 24.72 49.69 25.11 50.19 25.31C49.79 25.95 49.27 26.27 48.63 26.27C47.51 26.27 46.95 25.57 46.95 24.17V16.16H35.4V24.14C35.4 24.7 35.64 25.09 36.12 25.31C35.72 25.95 35.19 26.27 34.53 26.27C33.43 26.27 32.88 25.57 32.88 24.17V6.35C32.88 5.79 32.63 5.4 32.13 5.18C32.49 4.56 33.01 4.25 33.69 4.25C34.83 4.25 35.4 4.94 35.4 6.32V14.33H46.95V6.35C46.95 5.79 46.7 5.4 46.2 5.18C46.56 4.56 47.08 4.25 47.76 4.25C48.88 4.25 49.44 4.94 49.44 6.32ZM70.5914 7.85C70.5914 8.35 70.4314 8.74 70.1114 9.02C69.7914 9.3 69.3914 9.44 68.9114 9.44C68.4514 9.44 68.0914 9.37 67.8314 9.23C67.8514 9.09 67.8614 8.96 67.8614 8.84C67.8614 8.16 67.5514 7.55 66.9314 7.01C66.3114 6.47 65.3414 6.2 64.0214 6.2C62.1814 6.2 60.5714 6.99 59.1914 8.57C57.8314 10.13 57.1514 12.33 57.1514 15.17C57.1514 18.01 57.7714 20.19 59.0114 21.71C60.2514 23.21 61.9814 23.96 64.2014 23.96C65.3814 23.96 66.4814 23.72 67.5014 23.24C68.5214 22.76 69.3614 22.19 70.0214 21.53C70.1614 21.55 70.2914 21.65 70.4114 21.83C70.5514 21.99 70.6214 22.21 70.6214 22.49C70.6214 23.23 69.9114 24.05 68.4914 24.95C67.0914 25.83 65.4314 26.27 63.5114 26.27C60.8514 26.27 58.6614 25.31 56.9414 23.39C55.2414 21.47 54.3914 18.85 54.3914 15.53C54.3914 12.21 55.3614 9.5 57.3014 7.4C59.2414 5.3 61.6514 4.25 64.5314 4.25C66.2514 4.25 67.6914 4.6 68.8514 5.3C70.0114 6 70.5914 6.85 70.5914 7.85Z" fill="white"/>
</svg>
